# xmcd
#
# Track frame offsets:
#	150
#	9585
#	23797
#	38672
#	67480
#	88510
#	102042
#	119350
#	131670
#	145397
#	166587
#	177855
#	197127
#	211570
#	237807
#	257045
#	270400
#
# Disc length: 4131 seconds
#
# Revision: 2
# Processed by: cddbd v1.5.1PL0 Copyright (c) Steve Scherf et al.
# Submitted via: audiograbber 1.83.01
#
DISCID=e2102111
DTITLE=Various Artist - Instrumental Blues Dynamite!
DYEAR=1996
DGENRE=Blues
TTITLE0=James Harman Band - Torqueflite 727
TTITLE1=Rick Holmstrom - Fooled Ya
TTITLE2=Tri-Saxual Soul Champs - Misirlou
TTITLE3=Snooks Eaglin - You and Me
TTITLE4=Bobby Parker - Bobby-O
TTITLE5=Al Copley - Glass Boogie
TTITLE6=Robert Ward - Blessings
TTITLE7=Rusty Zinn - Jr. Jives
TTITLE8=Greg Piccolo - Mushmouth
TTITLE9=Anson Funderburgh and The Rockets - Down at J.J.'s
TTITLE10=Mike Morgan and The Crawl - Big D Shuffle
TTITLE11=Guitar Shorty - Old Time Sake
TTITLE12=Bobby Radcliff - Bonehead
TTITLE13=Rod Piazza and The Mighty Flyers - Night's End
TTITLE14=Big Joe and The Dynaflows - Smells Like Bar-B-Q
TTITLE15=Al Copley - Elegie
TTITLE16=Clarence Hollimon - Gristle's Improvisations
EXTD=
EXTT0=James Harman Band\nRick Holmstrom\nTri-Saxual Soul Champs\nSnooks Eaglin
EXTT0=\nBobby Parker\nAl Copley\nRobert Ward\nRusty Zinn\nGreg Piccolo\nAnson F
EXTT0=underburgh and the Rockets\nMike Morgan and the Crawl\nGuitar Shorty\nBob
EXTT0=by Radcliff\nRod Piazza and the Mighty Flyers\nBig Joe and the Dynaflows
EXTT0=\nAl Copley\nClarence Hollimon
EXTT1=
EXTT2=
EXTT3=
EXTT4=
EXTT5=
EXTT6=
EXTT7=
EXTT8=
EXTT9=
EXTT10=
EXTT11=
EXTT12=
EXTT13=
EXTT14=
EXTT15=
EXTT16=
PLAYORDER=
